<svg xmlns="http://www.w3.org/2000/svg" xmlns:svg="http://www.w3.org/2000/svg" viewBox="0 0 380 200" version="1">
  <!--Created by klainen, released as Public Domain.  See usuk.svg for unminimized version.-->
  <g transform="translate(.5 -.5)">
    <rect height="16" width="379" y="184" x="0" fill="#bf0a30"/>
    <rect height="16" width="379" y="168" x="0" fill="#fff"/>
    <rect height="16" width="379" y="152" x="0" fill="#bf0a30"/>
    <rect height="16" width="379" y="136" x="0" fill="#fff"/>
    <rect height="15" width="379" y="121" x="0" fill="#bf0a30"/>
    <rect height="15" width="379" y="106" x="0" fill="#fff"/>
    <rect height="15" width="379" y="91" x="0" fill="#bf0a30"/>
    <rect height="15" width="379" y="76" x="0" fill="#fff"/>
    <rect height="15" width="379" y="61" x="0" fill="#bf0a30"/>
    <rect height="15" width="379" y="46" x="0" fill="#fff"/>
    <rect height="15" width="379" y="31" x="0" fill="#bf0a30"/>
    <rect height="15" width="379" y="16" x="0" fill="#fff"/>
    <rect height="15" width="379" y="1" x="0" fill="#bf0a30"/>
  </g>
  <g transform="translate(.5 -.5)">
    <rect height="105" width="152" y="1" x="0" fill="#002868"/>
  </g>
  <g transform="translate(.5 -.5)">
    <path transform="matrix(1.0487 .089951 -.085930 1.0977 -86.263 -76.411)" d="m100.3 146.7 4.1-0.8 1.3-4 2 3.7 4.2 0-2.9 3.1 1.3 4-3.8-1.8-3.4 2.5 0.5-4.2zM100.3 146.7l4.1-0.8 1.3-4 2 3.7 4.2 0-2.9 3.1 1.3 4-3.8-1.8-3.4 2.5 0.5-4.2M100.3 146.7l4.1-0.8 1.3-4 2 3.7 4.2 0-2.9 3.1 1.3 4-3.8-1.8-3.4 2.5 0.5-4.2M100.3 146.7l4.1-0.8 1.3-4 2 3.7 4.2 0-2.9 3.1 1.3 4-3.8-1.8-3.4 2.5 0.5-4.2M100.3 146.7l4.1-0.8 1.3-4 2 3.7 4.2 0-2.9 3.1 1.3 4-3.8-1.8-3.4 2.5 0.5-4.2" fill="#fff"/>
    <path transform="matrix(1.0487 .089951 -.085930 1.0977 -61.263 -76.411)" d="m100.3 146.7 4.1-0.8 1.3-4 2 3.7 4.2 0-2.9 3.1 1.3 4-3.8-1.8-3.4 2.5 0.5-4.2z" fill="#fff"/>
    <path transform="matrix(1.0487 .089951 -.085930 1.0977 -35.263 -76.411)" d="m100.3 146.7 4.1-0.8 1.3-4 2 3.7 4.2 0-2.9 3.1 1.3 4-3.8-1.8-3.4 2.5 0.5-4.2z" fill="#fff"/>
    <path transform="matrix(1.0487 .089951 -.085930 1.0977 -10.263 -76.411)" d="m100.3 146.7 4.1-0.8 1.3-4 2 3.7 4.2 0-2.9 3.1 1.3 4-3.8-1.8-3.4 2.5 0.5-4.2z" fill="#fff"/>
    <path transform="matrix(1.0487 .089951 -.085930 1.0977 14.737 -76.411)" d="m100.3 146.7 4.1-0.8 1.3-4 2 3.7 4.2 0-2.9 3.1 1.3 4-3.8-1.8-3.4 2.5 0.5-4.2z" fill="#fff"/>
    <path transform="matrix(1.0487 .089951 -.085930 1.0977 40.737 -76.411)" d="m100.3 146.7 4.1-0.8 1.3-4 2 3.7 4.2 0-2.9 3.1 1.3 4-3.8-1.8-3.4 2.5 0.5-4.2z" fill="#fff"/>
    <path transform="matrix(1.0487 .089951 -.085930 1.0977 -73.263 -86.411)" d="m100.3 146.7 4.1-0.8 1.3-4 2 3.7 4.2 0-2.9 3.1 1.3 4-3.8-1.8-3.4 2.5 0.5-4.2z" fill="#fff"/>
    <path transform="matrix(1.0487 .089951 -.085930 1.0977 -86.263 -97.411)" d="m100.3 146.7 4.1-0.8 1.3-4 2 3.7 4.2 0-2.9 3.1 1.3 4-3.8-1.8-3.4 2.5 0.5-4.2z" fill="#fff"/>
    <path transform="matrix(1.0487 .089951 -.085930 1.0977 -73.263 -107.41)" d="m100.3 146.7 4.1-0.8 1.3-4 2 3.7 4.2 0-2.9 3.1 1.3 4-3.8-1.8-3.4 2.5 0.5-4.2z" fill="#fff"/>
    <path transform="matrix(1.0487 .089951 -.085930 1.0977 -86.263 -118.41)" d="m100.3 146.7 4.1-0.8 1.3-4 2 3.7 4.2 0-2.9 3.1 1.3 4-3.8-1.8-3.4 2.5 0.5-4.2z" fill="#fff"/>
    <path transform="matrix(1.0487 .089951 -.085930 1.0977 -73.263 -128.41)" d="m100.3 146.7 4.1-0.8 1.3-4 2 3.7 4.2 0-2.9 3.1 1.3 4-3.8-1.8-3.4 2.5 0.5-4.2z" fill="#fff"/>
    <path transform="matrix(1.0487 .089951 -.085930 1.0977 -86.263 -139.41)" d="m100.3 146.7 4.1-0.8 1.3-4 2 3.7 4.2 0-2.9 3.1 1.3 4-3.8-1.8-3.4 2.5 0.5-4.2z" fill="#fff"/>
    <path transform="matrix(1.0487 .089951 -.085930 1.0977 -73.263 -149.41)" d="m100.3 146.7 4.1-0.8 1.3-4 2 3.7 4.2 0-2.9 3.1 1.3 4-3.8-1.8-3.4 2.5 0.5-4.2z" fill="#fff"/>
    <path transform="matrix(1.0487 .089951 -.085930 1.0977 -86.263 -160.41)" d="m100.3 146.7 4.1-0.8 1.3-4 2 3.7 4.2 0-2.9 3.1 1.3 4-3.8-1.8-3.4 2.5 0.5-4.2z" fill="#fff"/>
    <path transform="matrix(1.0487 .089951 -.085930 1.0977 -48.263 -86.411)" d="m100.3 146.7 4.1-0.8 1.3-4 2 3.7 4.2 0-2.9 3.1 1.3 4-3.8-1.8-3.4 2.5 0.5-4.2z" fill="#fff"/>
    <path transform="matrix(1.0487 .089951 -.085930 1.0977 -61.263 -97.411)" d="m100.3 146.7 4.1-0.8 1.3-4 2 3.7 4.2 0-2.9 3.1 1.3 4-3.8-1.8-3.4 2.5 0.5-4.2z" fill="#fff"/>
    <path transform="matrix(1.0487 .089951 -.085930 1.0977 -48.263 -107.41)" d="m100.3 146.7 4.1-0.8 1.3-4 2 3.7 4.2 0-2.9 3.1 1.3 4-3.8-1.8-3.4 2.5 0.5-4.2z" fill="#fff"/>
    <path transform="matrix(1.0487 .089951 -.085930 1.0977 -61.263 -118.41)" d="m100.3 146.7 4.1-0.8 1.3-4 2 3.7 4.2 0-2.9 3.1 1.3 4-3.8-1.8-3.4 2.5 0.5-4.2z" fill="#fff"/>
    <path transform="matrix(1.0487 .089951 -.085930 1.0977 -48.263 -128.41)" d="m100.3 146.7 4.1-0.8 1.3-4 2 3.7 4.2 0-2.9 3.1 1.3 4-3.8-1.8-3.4 2.5 0.5-4.2z" fill="#fff"/>
    <path transform="matrix(1.0487 .089951 -.085930 1.0977 -61.263 -139.41)" d="m100.3 146.7 4.1-0.8 1.3-4 2 3.7 4.2 0-2.9 3.1 1.3 4-3.8-1.8-3.4 2.5 0.5-4.2z" fill="#fff"/>
    <path transform="matrix(1.0487 .089951 -.085930 1.0977 -48.263 -149.41)" d="m100.3 146.7 4.1-0.8 1.3-4 2 3.7 4.2 0-2.9 3.1 1.3 4-3.8-1.8-3.4 2.5 0.5-4.2z" fill="#fff"/>
    <path transform="matrix(1.0487 .089951 -.085930 1.0977 -61.263 -160.41)" d="m100.3 146.7 4.1-0.8 1.3-4 2 3.7 4.2 0-2.9 3.1 1.3 4-3.8-1.8-3.4 2.5 0.5-4.2z" fill="#fff"/>
    <path transform="matrix(1.0487 .089951 -.085930 1.0977 -23.263 -86.411)" d="m100.3 146.7 4.1-0.8 1.3-4 2 3.7 4.2 0-2.9 3.1 1.3 4-3.8-1.8-3.4 2.5 0.5-4.2z" fill="#fff"/>
    <path transform="matrix(1.0487 .089951 -.085930 1.0977 -35.263 -97.411)" d="m100.3 146.7 4.1-0.8 1.3-4 2 3.7 4.2 0-2.9 3.1 1.3 4-3.8-1.8-3.4 2.5 0.5-4.2z" fill="#fff"/>
    <path transform="matrix(1.0487 .089951 -.085930 1.0977 14.737 -97.411)" d="m100.3 146.7 4.1-0.8 1.3-4 2 3.7 4.2 0-2.9 3.1 1.3 4-3.8-1.8-3.4 2.5 0.5-4.2z" fill="#fff"/>
    <path transform="matrix(1.0487 .089951 -.085930 1.0977 -10.263 -97.411)" d="m100.3 146.7 4.1-0.8 1.3-4 2 3.7 4.2 0-2.9 3.1 1.3 4-3.8-1.8-3.4 2.5 0.5-4.2z" fill="#fff"/>
    <path transform="matrix(1.0487 .089951 -.085930 1.0977 27.737 -86.411)" d="m100.3 146.7 4.1-0.8 1.3-4 2 3.7 4.2 0-2.9 3.1 1.3 4-3.8-1.8-3.4 2.5 0.5-4.2z" fill="#fff"/>
    <path transform="matrix(1.0487 .089951 -.085930 1.0977 2.7366 -86.411)" d="m100.3 146.7 4.1-0.8 1.3-4 2 3.7 4.2 0-2.9 3.1 1.3 4-3.8-1.8-3.4 2.5 0.5-4.2z" fill="#fff"/>
    <path transform="matrix(1.0487 .089951 -.085930 1.0977 -35.263 -160.41)" d="m100.3 146.7 4.1-0.8 1.3-4 2 3.7 4.2 0-2.9 3.1 1.3 4-3.8-1.8-3.4 2.5 0.5-4.2z" fill="#fff"/>
    <path transform="matrix(1.0487 .089951 -.085930 1.0977 -23.263 -149.41)" d="m100.3 146.7 4.1-0.8 1.3-4 2 3.7 4.2 0-2.9 3.1 1.3 4-3.8-1.8-3.4 2.5 0.5-4.2z" fill="#fff"/>
    <path transform="matrix(1.0487 .089951 -.085930 1.0977 -35.263 -139.41)" d="m100.3 146.7 4.1-0.8 1.3-4 2 3.7 4.2 0-2.9 3.1 1.3 4-3.8-1.8-3.4 2.5 0.5-4.2z" fill="#fff"/>
    <path transform="matrix(1.0487 .089951 -.085930 1.0977 -23.263 -128.41)" d="m100.3 146.7 4.1-0.8 1.3-4 2 3.7 4.2 0-2.9 3.1 1.3 4-3.8-1.8-3.4 2.5 0.5-4.2z" fill="#fff"/>
    <path transform="matrix(1.0487 .089951 -.085930 1.0977 -35.263 -118.41)" d="m100.3 146.7 4.1-0.8 1.3-4 2 3.7 4.2 0-2.9 3.1 1.3 4-3.8-1.8-3.4 2.5 0.5-4.2z" fill="#fff"/>
    <path transform="matrix(1.0487 .089951 -.085930 1.0977 -23.263 -107.41)" d="m100.3 146.7 4.1-0.8 1.3-4 2 3.7 4.2 0-2.9 3.1 1.3 4-3.8-1.8-3.4 2.5 0.5-4.2z" fill="#fff"/>
    <path transform="matrix(1.0487 .089951 -.085930 1.0977 40.737 -97.411)" d="m100.3 146.7 4.1-0.8 1.3-4 2 3.7 4.2 0-2.9 3.1 1.3 4-3.8-1.8-3.4 2.5 0.5-4.2z" fill="#fff"/>
    <path transform="matrix(1.0487 .089951 -.085930 1.0977 -10.263 -118.41)" d="m100.3 146.7 4.1-0.8 1.3-4 2 3.7 4.2 0-2.9 3.1 1.3 4-3.8-1.8-3.4 2.5 0.5-4.2z" fill="#fff"/>
    <path transform="matrix(1.0487 .089951 -.085930 1.0977 -10.263 -160.41)" d="m100.3 146.7 4.1-0.8 1.3-4 2 3.7 4.2 0-2.9 3.1 1.3 4-3.8-1.8-3.4 2.5 0.5-4.2z" fill="#fff"/>
    <path transform="matrix(1.0487 .089951 -.085930 1.0977 -10.263 -139.41)" d="m100.3 146.7 4.1-0.8 1.3-4 2 3.7 4.2 0-2.9 3.1 1.3 4-3.8-1.8-3.4 2.5 0.5-4.2z" fill="#fff"/>
    <path transform="matrix(1.0487 .089951 -.085930 1.0977 27.737 -107.41)" d="m100.3 146.7 4.1-0.8 1.3-4 2 3.7 4.2 0-2.9 3.1 1.3 4-3.8-1.8-3.4 2.5 0.5-4.2z" fill="#fff"/>
    <path transform="matrix(1.0487 .089951 -.085930 1.0977 2.7366 -107.41)" d="m100.3 146.7 4.1-0.8 1.3-4 2 3.7 4.2 0-2.9 3.1 1.3 4-3.8-1.8-3.4 2.5 0.5-4.2z" fill="#fff"/>
    <path transform="matrix(1.0487 .089951 -.085930 1.0977 2.7366 -149.41)" d="m100.3 146.7 4.1-0.8 1.3-4 2 3.7 4.2 0-2.9 3.1 1.3 4-3.8-1.8-3.4 2.5 0.5-4.2z" fill="#fff"/>
    <path transform="matrix(1.0487 .089951 -.085930 1.0977 2.7366 -128.41)" d="m100.3 146.7 4.1-0.8 1.3-4 2 3.7 4.2 0-2.9 3.1 1.3 4-3.8-1.8-3.4 2.5 0.5-4.2z" fill="#fff"/>
    <path transform="matrix(1.0487 .089951 -.085930 1.0977 40.737 -118.41)" d="m100.3 146.7 4.1-0.8 1.3-4 2 3.7 4.2 0-2.9 3.1 1.3 4-3.8-1.8-3.4 2.5 0.5-4.2z" fill="#fff"/>
    <path transform="matrix(1.0487 .089951 -.085930 1.0977 14.737 -118.41)" d="m100.3 146.7 4.1-0.8 1.3-4 2 3.7 4.2 0-2.9 3.1 1.3 4-3.8-1.8-3.4 2.5 0.5-4.2z" fill="#fff"/>
    <path transform="matrix(1.0487 .089951 -.085930 1.0977 14.737 -160.41)" d="m100.3 146.7 4.1-0.8 1.3-4 2 3.7 4.2 0-2.9 3.1 1.3 4-3.8-1.8-3.4 2.5 0.5-4.2z" fill="#fff"/>
    <path transform="matrix(1.0487 .089951 -.085930 1.0977 14.737 -139.41)" d="m100.3 146.7 4.1-0.8 1.3-4 2 3.7 4.2 0-2.9 3.1 1.3 4-3.8-1.8-3.4 2.5 0.5-4.2z" fill="#fff"/>
    <path transform="matrix(1.0487 .089951 -.085930 1.0977 40.737 -160.41)" d="m100.3 146.7 4.1-0.8 1.3-4 2 3.7 4.2 0-2.9 3.1 1.3 4-3.8-1.8-3.4 2.5 0.5-4.2z" fill="#fff"/>
    <path transform="matrix(1.0487 .089951 -.085930 1.0977 27.737 -149.41)" d="m100.3 146.7 4.1-0.8 1.3-4 2 3.7 4.2 0-2.9 3.1 1.3 4-3.8-1.8-3.4 2.5 0.5-4.2z" fill="#fff"/>
    <path transform="matrix(1.0487 .089951 -.085930 1.0977 40.737 -139.41)" d="m100.3 146.7 4.1-0.8 1.3-4 2 3.7 4.2 0-2.9 3.1 1.3 4-3.8-1.8-3.4 2.5 0.5-4.2z" fill="#fff"/>
    <path transform="matrix(1.0487 .089951 -.085930 1.0977 27.737 -128.41)" d="m100.3 146.7 4.1-0.8 1.3-4 2 3.7 4.2 0-2.9 3.1 1.3 4-3.8-1.8-3.4 2.5 0.5-4.2z" fill="#fff"/>
  </g>
  <g transform="translate(.5 -.5)">
    <path d="m-0.4 200.5 381-198.6-0.9 199.1z" fill="#fff"/>
  </g>
  <g transform="translate(.5 -.5)">
    <path d="m220.6 200.2-0.3-72.6 158.7 0.2 0.2 72.3zM379 1.4l-129 68.3M379 1.4l-129 68.3M379 1.4l-129 68.3M379 1.4l-129 68.3" fill="#00247d"/>
    <path d="m379 1.4-129 68.3h128.7z" fill="#00247d"/>
    <path d="m0 200.2 141.5-73.7l19.8 0.2-0.4 73.7z" fill="#00247d"/>
  </g>
  <g transform="translate(.5 -.5)">
    <path d="m379.9 180.2-0.4 19.5-33.1 2.1-130-68.2 1.5-9.5 57.7 1.6zM380.1 0.5l-133.4 71M380.1 0.5l-133.4 71M380.1 0.5l-133.4 71M380.1 0.5l-133.4 71" fill="#fff"/>
    <path d="m380.1 0.5-133.4 71l41.3 0.9 91.4-48.5z" fill="#fff"/>
    <path d="m-0.4 199.6 148.6-76.3l15.2 0.6 0.1 14.5-116.6 61.7z" fill="#fff"/>
    <path d="m-0.7 199.8 146.6-75.5l15.4 0.1-0.4 7.8-129.4 67.9zM238.2 125.4l28.8 0.9 112.3 60.2-0.4 13M238.2 125.4l28.8 0.9 112.3 60.2-0.4 13M238.2 125.4l28.8 0.9 112.3 60.2-0.4 13M238.2 125.4l28.8 0.9 112.3 60.2-0.4 13" fill="#cf142b"/>
    <path d="m238.2 125.4 28.8 0.9 112.3 60.2-0.4 13z" fill="#cf142b"/>
  </g>
  <g transform="translate(.5 -.5)">
    <path d="m379 116.7-218.9-0.2 72.6-37.2 146.3 0.3zM209.2 199.5l0.4-107.5-37.9 19.1 0.1 88.8M209.2 199.5l0.4-107.5-37.9 19.1 0.1 88.8M209.2 199.5l0.4-107.5-37.9 19.1 0.1 88.8M209.2 199.5l0.4-107.5-37.9 19.1 0.1 88.8" fill="#cf142b"/>
    <path d="m209.2 199.5 0.4-107.5-37.9 19.1 0.1 88.8z" fill="#cf142b"/>
  </g>
  <g transform="translate(.5 -.5)">
    <rect height="199" width="379" y="1" x="0" style="fill:none;stroke:#000"/>
  </g>
</svg>
