<?xml version="1.0"?>
<!--Created by klainen, released as Public Domain.  See usuk.svg for unminimized version.-->
<svg xmlns="http://www.w3.org/2000/svg" xmlns:xlink="http://www.w3.org/1999/xlink" viewBox="0 0 380 200" version="1">
<rect fill="#fff" width="379" height="199"/>
<rect y="183" width="379" height="16" fill="#bf0a30"/>
<rect fill="#bf0a30" y="151" width="379" height="16"/>
<rect fill="#bf0a30" y="120" width="379" height="15"/>
<rect fill="#bf0a30" y="90" width="379" height="15"/>
<rect fill="#bf0a30" y="60" width="379" height="15"/>
<rect fill="#bf0a30" y="30" width="379" height="15"/>
<rect fill="#bf0a30" width="379" height="15"/>
<rect fill="#002868" width="152" height="105"/>
<path fill="#fff" stroke-width="1.07" d="m 6.31,93.64 4.36,-0.50 1.70,-4.27 1.77,4.24 4.40,0.37 -3.30,3.14 1.01,4.50 -3.83,-2.31 -3.78,2.43 0.88,-4.56 z m 0,0 4.36,-0.50 1.70,-4.27 1.77,4.24 4.40,0.37 -3.30,3.14 1.01,4.50 -3.83,-2.31 -3.78,2.43 0.88,-4.56 m -3.24,-3.04 4.36,-0.50 1.70,-4.27 1.77,4.24 4.40,0.37 -3.30,3.14 1.01,4.50 -3.83,-2.31 -3.78,2.43 0.88,-4.56 m -3.24,-3.04 4.36,-0.50 1.70,-4.27 1.77,4.24 4.40,0.37 -3.30,3.14 1.01,4.50 -3.83,-2.31 -3.78,2.43 0.88,-4.56 m -3.24,-3.04 4.36,-0.50 1.70,-4.27 1.77,4.24 4.40,0.37 -3.30,3.14 1.01,4.50 -3.83,-2.31 -3.78,2.43 0.88,-4.56"/>
<path fill="#fff" stroke-width="1.07" id="s" d="m 6.31,9.64 4.36,-0.50 1.70,-4.27 1.77,4.24 4.40,0.37 -3.30,3.14 1.01,4.50 -3.83,-2.31 -3.78,2.43 0.88,-4.56 z"/>
<use xlink:href="#s" x="25"/><use x="51" xlink:href="#s"/><use xlink:href="#s" x="76"/><use x="101" xlink:href="#s"/><use xlink:href="#s" x="127"/><use x="13" y="11" xlink:href="#s"/><use xlink:href="#s" y="11" x="38.5"/><use x="64" y="11" xlink:href="#s"/><use xlink:href="#s" y="11" x="89.5"/><use x="115" y="11" xlink:href="#s"/><use xlink:href="#s" y="32" x="13"/><use x="38.5" y="32" xlink:href="#s"/><use xlink:href="#s" y="32" x="64"/><use x="89.5" y="32" xlink:href="#s"/><use xlink:href="#s" y="32" x="115"/><use x="13" y="53" xlink:href="#s"/><use xlink:href="#s" y="53" x="38.5"/><use x="64" y="53" xlink:href="#s"/><use xlink:href="#s" y="53" x="89.5"/><use x="115" y="53" xlink:href="#s"/><use xlink:href="#s" y="74" x="13"/><use x="38.5" y="74" xlink:href="#s"/><use xlink:href="#s" y="74" x="64"/><use x="89.5" y="74" xlink:href="#s"/><use xlink:href="#s" y="74" x="115"/><use x="25" y="21" xlink:href="#s"/><use xlink:href="#s" y="21" x="51"/><use x="76" y="21" xlink:href="#s"/><use xlink:href="#s" y="21" x="101"/><use x="127" y="21" xlink:href="#s"/><use xlink:href="#s" y="21"/><use xlink:href="#s" y="42" x="25"/><use x="51" y="42" xlink:href="#s"/><use xlink:href="#s" y="42" x="76"/><use x="101" y="42" xlink:href="#s"/><use xlink:href="#s" y="42" x="127"/><use y="42" xlink:href="#s"/><use x="25" y="63" xlink:href="#s"/><use xlink:href="#s" y="63" x="51"/><use x="76" y="63" xlink:href="#s"/><use xlink:href="#s" y="63" x="101"/><use x="127" y="63" xlink:href="#s"/><use xlink:href="#s" y="63"/><use xlink:href="#s" y="84" x="25"/><use x="51" y="84" xlink:href="#s"/><use xlink:href="#s" y="84" x="76"/><use x="101" y="84" xlink:href="#s"/><use xlink:href="#s" y="84" x="127"/><use y="84" xlink:href="#s"/>
<path fill="#fff" d="M 0,199 379.07,3.98 379.7,201 Z"/>
<path fill="#00247d" d="m 220.6,200.2 -0.3,-72.6 158.7,0.2 0.2,72.3 z M 379,1.4 250,69.7 M 379,1.4 250,69.7 M 379,1.4 250,69.7 M 379,1.4 250,69.7"/>
<path fill="#00247d" d="M 379,1.4 251.13,69.77 378.7,69.7 Z"/>
<path fill="#00247d" d="m 0,199 141.5,-72.5 19.8,0.2 -0.10,72.38 z"/>
<path fill="#fff" d="m 380.6,178.4 -0.4,21.58 -33.1,0.01 -130,-68.2 1.5,-9.5 57.7,1.6 z m 0.2,-179.7 -133.4,71 m 133.4,-71 -133.4,71 m 133.4,-71 -133.4,71 m 133.4,-71 -133.4,71"/>
<path fill="#fff" d="M 380.8,-1.3 249.38,70.67 288.7,70.6 380.1,22.1 Z"/>
<path fill="#fff" d="M 0,199 149.49,122.11 164.1,122.1 l 0.1,14.5 -117.40,62.42 z"/>
<path fill="#cf142b" d="m 0,199 148.49,-76.40 13.15,0.00 -0.04,7.8 -130.24,68.83 z m 238.9,-75.4 28.8,0.9 112.3,60.2 -0.4,13 m -140.7,-74.1 28.8,0.9 112.3,60.2 -0.4,13 m -140.7,-74.1 28.8,0.9 112.3,60.2 -0.4,13 m -140.7,-74.1 28.8,0.9 112.3,60.2 -0.4,13"/>
<path fill="#cf142b" d="m 238.9,123.6 28.8,0.9 112.3,60.2 -0.4,13 z"/>
<path fill="#cf142b" d="M 379,116.7 160.1,116.5 232.7,79.3 379,79.6 Z m -169.8,82.8 0.4,-107.5 -37.9,19.1 0.1,88.8 m 37.4,-0.4 0.4,-107.5 -37.9,19.1 0.1,88.8 m 37.4,-0.4 0.4,-107.5 -37.9,19.1 0.1,88.8 m 37.4,-0.4 0.4,-107.5 -37.9,19.1 0.1,88.8"/>
<path fill="#cf142b" d="m 209.2,199.5 0.4,-107.5 -37.9,19.1 0.1,88.8 z"/>
</svg>
